HIERARCHY
ROOT Hips
{
	OFFSET 46.381401 19.162386 84.181503
	CHANNELS 6 Xposition Yposition Zposition Xrotation Yrotation Zrotation
	JOINT spine
	{
		OFFSET 0.000000 -0.359108 6.244789
		CHANNELS 3 Xrotation Yrotation Zrotation
		JOINT spine1
		{
			OFFSET 0.000000 0.000000 9.069412
			CHANNELS 3 Xrotation Yrotation Zrotation
			JOINT spine2
			{
				OFFSET 0.000000 -0.000002 8.690140
				CHANNELS 3 Xrotation Yrotation Zrotation
				JOINT Neck
				{
					OFFSET 0.000000 -1.063725 22.311195
					CHANNELS 3 Xrotation Yrotation Zrotation
					JOINT Head
					{
						OFFSET 0.000000 -0.000002 6.740814
						CHANNELS 3 Xrotation Yrotation Zrotation
						End Site
						{
							OFFSET 0.000000 5.380968 16.316498
						}
					}
				}
				JOINT RightShoulder
				{
					OFFSET -3.659161 0.509512 9.384682
					CHANNELS 3 Xrotation Yrotation Zrotation
					JOINT RightArm
					{
						OFFSET 0.000000 -0.000002 12.308899
						CHANNELS 3 Xrotation Yrotation Zrotation
						JOINT RightArmRoll
						{
							OFFSET 0.000000 -0.000002 6.213745
							CHANNELS 3 Xrotation Yrotation Zrotation
							JOINT RightForeArm
							{
								OFFSET 0.000000 -0.000002 18.098495
								CHANNELS 3 Xrotation Yrotation Zrotation
								JOINT RightForeArmRoll
								{
									OFFSET 0.000000 -0.000002 6.972794
									CHANNELS 3 Xrotation Yrotation Zrotation
									JOINT RightHand
									{
										OFFSET 0.000000 -0.000002 13.992905
										CHANNELS 3 Xrotation Yrotation Zrotation
										End Site
										{
											OFFSET 0.000000 0.000000 0.100006
										}
									}
								}
							}
						}
					}
				}
				JOINT LeftShoulder
				{
					OFFSET 3.659161 0.509512 9.384682
					CHANNELS 3 Xrotation Yrotation Zrotation
					JOINT LeftArm
					{
						OFFSET 0.000000 -0.000002 12.308899
						CHANNELS 3 Xrotation Yrotation Zrotation
						JOINT LeftArmRoll
						{
							OFFSET 0.000000 -0.000002 6.213745
							CHANNELS 3 Xrotation Yrotation Zrotation
							JOINT LeftForeArm
							{
								OFFSET 0.000000 -0.000002 18.098495
								CHANNELS 3 Xrotation Yrotation Zrotation
								JOINT LeftForeArmRoll
								{
									OFFSET 0.000000 -0.000002 6.972794
									CHANNELS 3 Xrotation Yrotation Zrotation
									JOINT LeftHand
									{
										OFFSET 0.000000 -0.000002 13.992905
										CHANNELS 3 Xrotation Yrotation Zrotation
										End Site
										{
											OFFSET 0.000000 0.000000 0.100006
										}
									}
								}
							}
						}
					}
				}
			}
		}
	}
	JOINT RightUpLeg
	{
		OFFSET -5.535149 0.851454 -1.014999
		CHANNELS 3 Xrotation Yrotation Zrotation
		JOINT RightUpLegRoll
		{
			OFFSET 0.000000 -0.000004 16.407501
			CHANNELS 3 Xrotation Yrotation Zrotation
			JOINT RightLeg
			{
				OFFSET 0.000000 0.000004 -20.318100
				CHANNELS 3 Xrotation Yrotation Zrotation
				JOINT RightLegRoll
				{
					OFFSET 0.000000 -0.000004 20.384598
					CHANNELS 3 Xrotation Yrotation Zrotation
					JOINT RightFoot
					{
						OFFSET 0.000000 -0.000002 16.966797
						CHANNELS 3 Xrotation Yrotation Zrotation
						JOINT RightToeBase
						{
							OFFSET 0.000000 -0.000002 14.183395
							CHANNELS 3 Xrotation Yrotation Zrotation
							End Site
							{
								OFFSET 0.006012 0.791744 6.868896
							}
						}
					}
				}
			}
		}
	}
	JOINT LeftUpLeg
	{
		OFFSET 5.535149 0.851454 -1.014999
		CHANNELS 3 Xrotation Yrotation Zrotation
		JOINT LeftUpLegRoll
		{
			OFFSET 0.000000 -0.000004 16.407600
			CHANNELS 3 Xrotation Yrotation Zrotation
			JOINT LeftLeg
			{
				OFFSET 0.000000 -0.000002 20.318100
				CHANNELS 3 Xrotation Yrotation Zrotation
				JOINT LeftLegRoll
				{
					OFFSET 0.000000 -0.000004 20.573097
					CHANNELS 3 Xrotation Yrotation Zrotation
					JOINT LeftFoot
					{
						OFFSET 0.000000 -0.000002 16.778305
						CHANNELS 3 Xrotation Yrotation Zrotation
						JOINT LeftToeBase
						{
							OFFSET 0.000000 -0.000004 14.183395
							CHANNELS 3 Xrotation Yrotation Zrotation
							End Site
							{
								OFFSET -0.026943 0.791746 6.868896
							}
						}
					}
				}
			}
		}
	}
}
MOTION
Frames: 11
Frame Time: 0.041667
44.786098 16.940784 83.695282 2.785266 -0.178029 -2.423979 -1.074779 -0.001817 -0.010238 1.853270 -0.007945 0.000878 3.498339 -0.007934 0.000973 3.472366 0.865992 0.384304 2.908375 0.270994 0.195139 -5.250147 -60.232098 -6.260959 -24.361912 -116.048042 -15.779023 0.000000 0.000030 0.000003 10.212857 -10.304841 0.398056 0.000003 0.000009 -3.000000 -5.000190 -7.998783 0.000156 -16.242376 60.521268 19.200966 -16.640938 115.683597 0.667067 -0.000000 0.000000 -0.000001 16.335680 2.636937 0.090144 -0.000003 0.000000 3.000002 -5.000194 7.999781 -0.000049 -10.814789 -178.068892 -0.734435 179.999991 -0.000004 -0.864000 163.613958 -0.696518 -1.198812 -0.000002 -0.000003 0.264074 72.629479 6.120323 4.058598 25.456894 -7.346411 0.000001 -4.268498 177.280552 -1.624123 -0.000005 -0.000004 -1.010900 -15.667465 1.062769 0.998059 -0.000001 -0.000000 -0.543472 77.824084 -6.633403 -2.219278 25.731961 7.347959 -0.403261 
44.783501 16.944284 83.694702 2.815575 -0.176443 -2.427262 -1.075771 -0.003903 -0.011379 1.851280 -0.011335 -0.002940 3.496359 -0.011370 -0.002804 3.439477 0.901869 0.391645 2.903158 0.226802 0.200845 -5.260666 -60.190489 -6.269627 -24.286088 -116.088641 -15.737009 0.000000 0.000030 0.000003 10.250012 -10.318338 0.402633 0.000004 0.000009 -3.000000 -5.000189 -7.998783 0.000155 -16.269511 60.530653 19.233019 -16.595464 115.702967 0.647912 0.000000 0.000000 0.000001 16.373857 2.654050 0.087946 -0.000000 -0.000000 3.000001 -5.000192 7.999781 -0.000052 -10.863663 -178.077061 -0.738847 179.999991 -0.000005 -0.864000 163.566242 -0.699216 -1.198230 -0.000001 -0.000003 0.264025 72.659436 6.122451 4.050284 25.456897 -7.346411 0.000002 -4.352167 177.279855 -1.611558 -0.000005 -0.000005 -1.010870 -15.771043 1.055559 1.000257 -0.000001 -0.000000 -0.547068 77.855537 -6.632411 -2.220833 25.738731 7.347969 -0.414009 
44.780701 16.968185 83.684891 2.846374 -0.175099 -2.430585 -1.076830 -0.005996 -0.012611 1.849159 -0.014694 -0.006983 3.494230 -0.014778 -0.006807 3.405978 0.938975 0.399521 2.898219 0.181441 0.206937 -5.271183 -60.148285 -6.278229 -24.210277 -116.129253 -15.695534 -0.000000 0.000030 0.000002 10.287078 -10.332027 0.407244 0.000004 0.000008 -3.000000 -5.000187 -7.998784 0.000156 -16.298708 60.539976 19.267501 -16.548112 115.723144 0.626752 -0.000000 0.000001 -0.000001 16.412639 2.671128 0.085735 -0.000001 0.000000 3.000002 -5.000189 7.999780 -0.000053 -10.912738 -178.085243 -0.742647 179.999991 -0.000004 -0.864000 163.519428 -0.702886 -1.197942 -0.000001 -0.000003 0.263952 72.688895 6.124672 4.041712 25.456895 -7.346411 0.000001 -4.435568 177.280155 -1.598621 -0.000005 -0.000005 -1.010870 -15.873025 1.048323 1.002380 0.000000 -0.000000 -0.550600 77.886546 -6.631428 -2.222412 25.745290 7.347976 -0.424543 
44.780998 16.963882 83.682190 2.877514 -0.173926 -2.433928 -1.077938 -0.008093 -0.013907 1.846940 -0.018031 -0.011184 3.492010 -0.018167 -0.010968 3.372061 0.976936 0.407787 2.893471 0.135263 0.213298 -5.281680 -60.105576 -6.286755 -24.133654 -116.170794 -15.653533 0.000000 0.000030 0.000002 10.324049 -10.345912 0.411891 0.000003 0.000009 -3.000001 -5.000190 -7.998783 0.000156 -16.329403 60.549320 19.303740 -16.499872 115.743211 0.604516 -0.000000 -0.000000 -0.000001 16.451817 2.688173 0.083517 -0.000001 -0.000000 2.999999 -5.000192 7.999781 -0.000050 -10.961823 -178.092415 -0.746204 179.999991 -0.000005 -0.864000 163.473106 -0.706555 -1.197641 -0.000001 -0.000003 0.263862 72.718155 6.126897 4.032849 25.456894 -7.346411 0.000002 -4.518769 177.281467 -1.585441 -0.000005 -0.000005 -1.010870 -15.973804 1.041048 1.004436 -0.000001 -0.000000 -0.554088 77.917241 -6.630471 -2.224012 25.751760 7.347979 -0.434939 
44.773201 16.953884 83.680588 2.908844 -0.172852 -2.437297 -1.079079 -0.010193 -0.015239 1.844660 -0.021356 -0.015476 3.489730 -0.021544 -0.015220 3.337896 1.015385 0.416297 2.888847 0.088619 0.219809 -5.292180 -60.062669 -6.295268 -24.057489 -116.212404 -15.612166 0.000000 0.000029 0.000002 10.361133 -10.359979 0.416614 0.000003 0.000008 -3.000000 -5.000190 -7.998782 0.000156 -16.360934 60.558650 19.340968 -16.451757 115.762308 0.582418 -0.000000 0.000001 0.000000 16.491201 2.705197 0.081281 -0.000003 -0.000000 2.999998 -5.000191 7.999780 -0.000053 -11.011003 -178.099614 -0.749511 179.999991 -0.000005 -0.864000 163.427084 -0.711178 -1.198637 -0.000001 -0.000003 0.263763 72.747115 6.129152 4.023906 25.456897 -7.346413 0.000001 -4.601866 177.282778 -1.572099 -0.000005 -0.000004 -1.010880 -16.073988 1.033761 1.006449 -0.000001 -0.000000 -0.557549 77.947751 -6.629550 -2.225523 25.758228 7.347970 -0.445261 
44.775299 16.957783 83.677994 2.940215 -0.171805 -2.440665 -1.080218 -0.012293 -0.016579 1.842360 -0.024677 -0.019792 3.487440 -0.024917 -0.019495 3.303670 1.053946 0.424903 2.884243 0.041857 0.226352 -5.302637 -60.019652 -6.303721 -23.981339 -116.254041 -15.570910 0.000000 0.000030 0.000003 10.398119 -10.374041 0.421336 0.000003 0.000008 -3.000001 -5.000188 -7.998782 0.000155 -16.392659 60.567946 19.378428 -16.402972 115.782348 0.559610 -0.000000 0.000000 -0.000002 16.530688 2.722229 0.079010 -0.000002 0.000000 3.000002 -5.000190 7.999780 -0.000052 -11.060287 -178.106800 -0.752753 179.999991 -0.000005 -0.864000 163.381267 -0.715800 -1.198641 -0.000001 -0.000003 0.263661 72.776082 6.131404 4.014964 25.456897 -7.346413 0.000002 -4.684931 177.283092 -1.558622 -0.000005 -0.000004 -1.010890 -16.174067 1.026468 1.008437 -0.000001 -0.000000 -0.561005 77.978173 -6.628646 -2.227047 25.764590 7.347970 -0.455560 
44.774399 16.954185 83.668190 2.971502 -0.170715 -2.444028 -1.081359 -0.014392 -0.017903 1.840099 -0.028004 -0.024061 3.485180 -0.028296 -0.023725 3.269563 1.092240 0.433455 2.879580 -0.004673 0.232809 -5.313067 -59.976738 -6.312142 -23.905645 -116.295760 -15.529989 0.000000 0.000030 0.000002 10.435212 -10.387997 0.426077 0.000003 0.000008 -3.000000 -5.000188 -7.998783 0.000156 -16.424032 60.577289 19.415470 -16.355103 115.801472 0.537869 -0.000000 0.000001 -0.000002 16.570078 2.739258 0.076724 -0.000002 -0.000000 3.000000 -5.000191 7.999780 -0.000051 -11.109366 -178.113985 -0.756094 179.999991 -0.000005 -0.864000 163.335149 -0.719462 -1.198357 -0.000002 -0.000003 0.263564 72.805158 6.133651 4.006011 25.456901 -7.346412 0.000001 -4.768059 177.284431 -1.545326 -0.000005 -0.000004 -1.010900 -16.274348 1.019168 1.010408 -0.000001 -0.000000 -0.564473 78.008704 -6.627720 -2.228560 25.771053 7.347963 -0.465903 
44.771000 16.958187 83.665596 3.002533 -0.169510 -2.447379 -1.082449 -0.016488 -0.019180 1.837900 -0.031346 -0.028219 3.482981 -0.031689 -0.027843 3.235771 1.129916 0.441803 2.874793 -0.050622 0.239061 -5.323458 -59.934234 -6.320557 -23.829973 -116.337492 -15.488869 0.000000 0.000030 0.000003 10.472196 -10.401848 0.430793 0.000003 0.000009 -2.999999 -5.000188 -7.998782 0.000155 -16.454354 60.586544 19.451267 -16.307394 115.821649 0.516255 -0.000000 -0.000000 -0.000000 16.609174 2.756298 0.074402 -0.000002 -0.000000 2.999997 -5.000193 7.999781 -0.000053 -11.158544 -178.121170 -0.759733 179.999991 -0.000005 -0.864000 163.288636 -0.723120 -1.198097 -0.000001 -0.000003 0.263479 72.834439 6.135852 3.997139 25.456895 -7.346412 0.000002 -4.851315 177.285756 -1.532266 -0.000005 -0.000004 -1.010900 -16.375522 1.011886 1.012388 -0.000002 -0.000000 -0.567973 78.039487 -6.626791 -2.230163 25.777621 7.347949 -0.476338 
44.759399 16.976887 83.648094 3.033192 -0.168116 -2.450692 -1.083489 -0.018578 -0.020385 1.835820 -0.034713 -0.032196 3.480900 -0.035104 -0.031779 3.202454 1.166596 0.449795 2.869779 -0.095639 0.244988 -5.333809 -59.892119 -6.328966 -23.755558 -116.378391 -15.448699 0.000000 0.000029 0.000002 10.509285 -10.415492 0.435507 0.000003 0.000009 -3.000000 -5.000189 -7.998783 0.000156 -16.483065 60.595895 19.485186 -16.261376 115.841006 0.496501 -0.000000 0.000000 -0.000002 16.647768 2.773378 0.072053 -0.000000 0.000000 3.000000 -5.000190 7.999780 -0.000055 -11.207522 -178.129339 -0.763642 179.999991 -0.000005 -0.864000 163.241617 -0.726775 -1.197837 -0.000001 -0.000003 0.263413 72.864035 6.137980 3.988639 25.456901 -7.346411 0.000001 -4.934799 177.286084 -1.519473 -0.000005 -0.000005 -1.010890 -16.477905 1.004631 1.014388 -0.000001 -0.000000 -0.571524 78.070695 -6.625782 -2.231732 25.784184 7.347944 -0.486937 
44.759399 16.974487 83.645294 3.063313 -0.166465 -2.453981 -1.084461 -0.020662 -0.021491 1.833890 -0.038113 -0.035925 3.478971 -0.038549 -0.035467 3.169817 1.201919 0.457277 2.864468 -0.139375 0.250473 -5.344163 -59.850919 -6.337441 -23.681372 -116.419331 -15.408229 0.000001 0.000029 0.000002 10.546467 -10.428830 0.440193 0.000003 0.000008 -3.000000 -5.000190 -7.998782 0.000155 -16.509462 60.605136 19.516381 -16.216300 115.861510 0.477894 0.000000 0.000000 -0.000000 16.685665 2.790486 0.069677 -0.000001 0.000001 3.000002 -5.000192 7.999780 -0.000050 -11.256298 -178.137494 -0.768199 179.999991 -0.000005 -0.864000 163.193587 -0.729455 -1.198313 -0.000001 -0.000003 0.263373 72.894231 6.140024 3.980392 25.456901 -7.346411 0.000001 -5.018580 177.285442 -1.507099 -0.000005 -0.000004 -1.010860 -16.582183 0.997409 1.016429 0.000001 -0.000000 -0.575146 78.102291 -6.624813 -2.233382 25.791052 7.347939 -0.497764 
44.757401 16.961781 83.635696 3.092764 -0.164482 -2.457213 -1.085317 -0.022736 -0.022470 1.832160 -0.041557 -0.039338 3.477240 -0.042034 -0.038839 3.138030 1.235495 0.464095 2.858767 -0.181480 0.255396 -5.354425 -59.810519 -6.345905 -23.608429 -116.459438 -15.368373 0.000000 0.000029 0.000003 10.583741 -10.441764 0.444840 0.000004 0.000008 -2.999999 -5.000190 -7.998782 0.000155 -16.532982 60.614418 19.544190 -16.173724 115.881276 0.461965 -0.000000 0.000000 -0.000001 16.722665 2.807649 0.067256 -0.000002 -0.000000 3.000000 -5.000193 7.999780 -0.000050 -11.304857 -178.147617 -0.773189 179.999991 -0.000005 -0.864000 163.144491 -0.731187 -1.197526 -0.000001 -0.000003 0.263367 72.924953 6.141984 3.972602 25.456899 -7.346412 0.000001 -5.102745 177.284773 -1.495354 -0.000005 -0.000005 -1.010800 -16.688765 0.990226 1.018526 0.000001 -0.000000 -0.578857 78.134659 -6.623758 -2.235076 25.798026 7.347936 -0.508868 
